# xmcd
#
# Track frame offsets:
#	150
#	36031
#	52451
#	78934
#	93190
#	119880
#	139489
#	157965
#	172672
#	187202
#	210488
#	232980
#	252760
#	282423
#	319082
#	344018
#
# Disc length: 4738
#
# Revision: 3
# Processed by: cddbd v1.5.1PL0 Copyright (c) Steve Scherf et al.
# Submitted via: CDex 1.51
# Normalized: r2:DSETVAR1
#
DISCID=ec128010
DTITLE=Various Artist - Sound Of The City: New York (Compiled By Joe Claussel)
DYEAR=1998
DGENRE=Jazz
TTITLE0=Jephte Guillaume - The Prayer (Priye-a)
TTITLE1=Grace Jones - Pull Up To The Bumper
TTITLE2=Taj Mahal - Why Did You Have To Desert Me
TTITLE3=James Brown - Give It Up Or Turnit A Loose
TTITLE4=4 Hero feat. Ursula Rucker - Loveless
TTITLE5=The Undisputed Truth - Law Of The Land
TTITLE6=Roy Ayers - Life Is Just A Moment
TTITLE7=Wally Badarou - Chief Inspector
TTITLE8=Mandrill - Lord Of The Golden Babon
TTITLE9=Ronny Jordan - So What (Jazz Mix)
TTITLE10=Charlie Sepulveda - The Brick Wall
TTITLE11=King Sunny Ade - Ja Funmi (7" Version)
TTITLE12=Jose Padilla - Close To You
TTITLE13=Daniel Ponce - Arawe
TTITLE14=Cal Tjader - Cal's Bluedo
TTITLE15=The JB's - To My Brother
EXTD=YEAR: 1998
EXTT0=
EXTT1=
EXTT2=
EXTT3=
EXTT4=
EXTT5=
EXTT6=
EXTT7=
EXTT8=
EXTT9=
EXTT10=
EXTT11=
EXTT12=
EXTT13=
EXTT14=
EXTT15=
PLAYORDER=
